# xmcd
#
# Track frame offsets: 
#        150
#        22530
#        41752
#        62267
#        82612
#        101957
#
# Disc length: 1610 seconds
#
# Revision: 4
# Processed by: cddbd v1.5.1PL2 Copyright (c) Steve Scherf et al.
# Submitted via: ExactAudioCopy v0.95b4
#
DISCID=35064806
DTITLE=Akina Nakamori - Wonder
DYEAR=1988
DGENRE=JPops
TTITLE0=Labyrinth
TTITLE1=Okibi
TTITLE2=Fushigi
TTITLE3=Garasu no Kokoro
TTITLE4=Marionette
TTITLE5=Teen-age Blue
EXTD=ID3G:  17
EXTT0=
EXTT1=
EXTT2=
EXTT3=
EXTT4=
EXTT5=
PLAYORDER=
